<svg version="1.1" id="Layer_1" xmlns="http://www.w3.org/2000/svg" xmlns:xlink="http://www.w3.org/1999/xlink" x="0px" y="0px"
	 viewBox="0 0 479.7 129.6" style="enable-background:new 0 0 479.7 129.6;" xml:space="preserve">
	<style type="text/css">
		.st0{fill:#1E4BF0;}
		.st1{fill-rule:evenodd;clip-rule:evenodd;fill:#1E4BF0;}
	</style>
	<g>
		<polygon class="st0" points="419.8,69.5 407.3,91.1 407.3,96.5 444.8,74.9 462.5,64.7 432.5,47.4 	"/>
		<polygon class="st0" points="364.3,8 364.3,42.5 389.9,42.5 414.7,42.5 419.4,39.8 382,18.2 	"/>
		<polygon class="st0" points="364.3,101 364.3,121.4 394.2,104.1 381.4,82 369,60.4 364.3,57.7 	"/>
		<polygon class="st0" points="22.1,36.6 22.1,93.1 65,93.1 65,80.6 36.4,80.6 36.4,36.6 	"/>
		<path class="st0" d="M116.7,93.1h-13.9v-3.5c-3.4,3-7.9,4.8-13.5,4.8c-11.5,0-21.2-9.3-21.2-23.1c0-13.7,9.7-23.1,21.2-23.1
			c5.6,0,10.1,1.7,13.5,4.8v-3.5h13.9V93.1z M102.8,71.4c0-6.7-5-11.3-10.7-11.3c-6.1,0-10.5,4.6-10.5,11.3c0,6.8,4.4,11.3,10.5,11.3
			C97.8,82.6,102.8,78.1,102.8,71.4"/>
		<path class="st0" d="M168.9,88.8c0,13.4-10.2,20.8-24.4,20.8c-10,0-17.6-3.5-21.8-10.5l11.5-6.2c3.3,3.9,5.7,5.4,10.2,5.4
			c6.3,0,10.8-3.7,10.8-10.6v-1.2c-3.1,2.7-7.5,4.2-13.1,4.2c-11.4,0-21-9-21-21.3c0-12,9.6-21,21-21c5.6,0,10,1.5,13.1,4.2v-2.9
			h13.6V88.8z M155.3,69.3c0-5.8-4.6-9.9-10.1-9.9c-6.1,0-10.4,4.1-10.4,9.9c0,5.8,4.3,10,10.4,10C150.7,79.2,155.3,75.1,155.3,69.3"
			/>
		<path class="st0" d="M221.7,93.1h-13.9v-3.5c-3.4,3-7.9,4.8-13.5,4.8c-11.5,0-21.2-9.3-21.2-23.1c0-13.7,9.7-23.1,21.2-23.1
			c5.6,0,10.1,1.7,13.5,4.8v-3.5h13.9V93.1z M207.9,71.4c0-6.7-5-11.3-10.7-11.3c-6.1,0-10.5,4.6-10.5,11.3c0,6.8,4.4,11.3,10.5,11.3
			C202.8,82.6,207.9,78.1,207.9,71.4"/>
		<path class="st0" d="M238.5,79c0.6,3.7,4,5.1,7.7,5.1c3.6,0,5.6-1.6,5.6-3.5c0-1.5-1.1-2.6-4.3-3.2l-8.8-1.7
			c-8.1-1.5-12.7-5.8-12.7-12.7c0-8.9,7.7-14.7,18.7-14.7c10.8,0,18,4.9,19.8,12.5l-12.7,2.5c-0.4-2.7-3-5.1-7.3-5.1
			c-3.7,0-4.9,1.8-4.9,3.4c0,1.2,0.5,2.4,3.3,3l10.2,2.1c8.2,1.7,12,6.7,12,13.1c0,9.6-8.3,14.6-19.8,14.6c-10.2,0-19-3.7-20.5-12.7
			L238.5,79z"/>
		<path class="st0" d="M313.8,66.4v26.7H300V69.4c0-5.1-3-8.6-7.5-8.6c-5.4,0-8.9,3.7-8.9,12.1v20.2h-13.9V36.6h13.9v17.2
			c3.4-3.5,7.9-5.5,13.4-5.5C307,48.3,313.8,55.5,313.8,66.4"/>
		<polygon class="st1" points="313.8,30.1 319,30.1 319,30.9 316.8,30.9 316.8,36.6 316,36.6 316,30.9 313.8,30.9 	"/>
		<path class="st1" d="M325.1,36.6v-3.8c0-0.2,0-1,0-1.6h0l-1.8,5.4h-0.9l-1.8-5.4h0c0,0.6,0,1.4,0,1.6v3.8h-0.8v-6.5h1.3l1.8,5.5h0
			l1.8-5.5h1.2v6.5H325.1z"/>
	</g>
	</svg>